<svg xmlns="http://www.w3.org/2000/svg" viewBox="0 0 64 64" width="64" height="64" fill="none">
  <!-- Pozadina kartice -->
  <rect x="2" y="2" width="60" height="60" rx="14" fill="#F8F9FA" stroke="#E5E7EB" stroke-width="2"/>
  
  <!-- Dokument u pozadini -->
  <rect x="14" y="12" width="36" height="40" rx="4" fill="#FFFFFF" stroke="#D1D5DB" stroke-width="2"/>
  
  <!-- Linije urednog teksta -->
  <path d="M20 20H44" stroke="#E5E7EB" stroke-width="2" stroke-linecap="round"/>
  <path d="M20 26H32" stroke="#E5E7EB" stroke-width="2" stroke-linecap="round"/>
  <path d="M20 32H28" stroke="#E5E7EB" stroke-width="2" stroke-linecap="round"/>
  <path d="M20 44H36" stroke="#E5E7EB" stroke-width="2" stroke-linecap="round"/>
  
  <!-- Valovita linija pogreške (Red Flag podvlačenje u tekstu) -->
  <path d="M20 38C21.5 36.5 23 39.5 24.5 38C26 36.5 27.5 39.5 29 38C30.5 36.5 32 39.5 33.5 38" stroke="#D97706" stroke-width="1.8" stroke-linecap="round" stroke-linejoin="round"/>
  
  <!-- Povećalo za analizu (Search / QA Inspector) -->
  <circle cx="36" cy="34" r="7" fill="#E0F2F1" stroke="#008080" stroke-width="2"/>
  <path d="M41 39L47 45" stroke="#008080" stroke-width="2.5" stroke-linecap="round"/>
  
  <!-- Red Flag značka / Upozorenje na zaglavlju -->
  <path d="M42 10V22" stroke="#D97706" stroke-width="1.5" stroke-linecap="round"/>
  <path d="M42 11L49 14.5L42 18" fill="#FEF3C7" stroke="#D97706" stroke-width="1.5" stroke-linejoin="round"/>
</svg>
